<svg width="25" height="25" viewBox="0 0 25 25" fill="none" xmlns="http://www.w3.org/2000/svg">
<g clip-path="url(#clip0_198_9309)">
<path d="M15.625 6.87494C15.7892 6.71079 15.984 6.58058 16.1985 6.49174C16.413 6.4029 16.6429 6.35718 16.875 6.35718C17.1071 6.35718 17.337 6.4029 17.5515 6.49174C17.766 6.58058 17.9608 6.71079 18.125 6.87494C18.2892 7.0391 18.4194 7.23397 18.5082 7.44845C18.597 7.66292 18.6428 7.8928 18.6428 8.12494C18.6428 8.35709 18.597 8.58696 18.5082 8.80144C18.4194 9.01591 18.2892 9.21079 18.125 9.37494L9.6875 17.8124L6.25 18.7499L7.1875 15.3124L15.625 6.87494Z" stroke="white" stroke-width="1.6" stroke-linecap="round" stroke-linejoin="round"/>
</g>
<defs>
<clipPath id="clip0_198_9309">
<rect width="15" height="15" fill="white" transform="translate(5 5)"/>
</clipPath>
</defs>
</svg>
